<svg xmlns="http://www.w3.org/2000/svg" width="15" height="90" viewBox="0 0 15 90" fill="none">
  <path d="M6.54701 89.1371C2.20583 81.9417 1.40002 81.2032 1.40002 78.5587C1.40002 74.9364 3.96835 72 7.13655 72C10.3048 72 12.8731 74.9364 12.8731 78.5587C12.8731 81.2032 12.0673 81.9417 7.7261 89.1371C7.44122 89.6076 6.83186 89.6076 6.54701 89.1371ZM7.13655 81.2916C8.45664 81.2916 9.52677 80.068 9.52677 78.5587C9.52677 77.0495 8.45664 75.8259 7.13655 75.8259C5.81646 75.8259 4.74633 77.0495 4.74633 78.5587C4.74633 80.068 5.81646 81.2916 7.13655 81.2916Z" fill="#005687"/>
  <ellipse cx="7.09665" cy="64.5877" rx="0.715" ry="0.712581" fill="#005687"/>
  <ellipse cx="7.09665" cy="64.5877" rx="0.715" ry="0.712581" fill="#005687"/>
  <ellipse cx="7.09665" cy="64.5877" rx="0.715" ry="0.712581" fill="#005687"/>
  <ellipse cx="7.09665" cy="64.5877" rx="0.715" ry="0.712581" fill="#005687"/>
  <ellipse cx="7.09665" cy="64.5877" rx="0.715" ry="0.712581" fill="#005687"/>
  <ellipse cx="7.09665" cy="56.0368" rx="0.715" ry="0.712581" fill="#005687"/>
  <ellipse cx="7.09665" cy="56.0368" rx="0.715" ry="0.712581" fill="#005687"/>
  <ellipse cx="7.09665" cy="56.0368" rx="0.715" ry="0.712581" fill="#005687"/>
  <ellipse cx="7.09665" cy="56.0368" rx="0.715" ry="0.712581" fill="#005687"/>
  <ellipse cx="7.09665" cy="56.0368" rx="0.715" ry="0.712581" fill="#005687"/>
  <ellipse cx="7.09665" cy="47.4857" rx="0.715" ry="0.712581" fill="#005687"/>
  <ellipse cx="7.09665" cy="47.4857" rx="0.715" ry="0.712581" fill="#005687"/>
  <ellipse cx="7.09665" cy="47.4857" rx="0.715" ry="0.712581" fill="#005687"/>
  <ellipse cx="7.09665" cy="47.4857" rx="0.715" ry="0.712581" fill="#005687"/>
  <ellipse cx="7.09665" cy="47.4857" rx="0.715" ry="0.712581" fill="#005687"/>
  <ellipse cx="7.09665" cy="38.9348" rx="0.715" ry="0.712581" fill="#005687"/>
  <ellipse cx="7.09665" cy="38.9348" rx="0.715" ry="0.712581" fill="#005687"/>
  <ellipse cx="7.09665" cy="38.9348" rx="0.715" ry="0.712581" fill="#005687"/>
  <ellipse cx="7.09665" cy="38.9348" rx="0.715" ry="0.712581" fill="#005687"/>
  <ellipse cx="7.09665" cy="38.9348" rx="0.715" ry="0.712581" fill="#005687"/>
  <ellipse cx="7.09665" cy="30.3838" rx="0.715" ry="0.712581" fill="#005687"/>
  <ellipse cx="7.09665" cy="30.3838" rx="0.715" ry="0.712581" fill="#005687"/>
  <ellipse cx="7.09665" cy="30.3838" rx="0.715" ry="0.712581" fill="#005687"/>
  <ellipse cx="7.09665" cy="30.3838" rx="0.715" ry="0.712581" fill="#005687"/>
  <ellipse cx="7.09665" cy="30.3838" rx="0.715" ry="0.712581" fill="#005687"/>
  <ellipse cx="7.09665" cy="21.8329" rx="0.715" ry="0.712581" fill="#005687"/>
  <ellipse cx="7.09665" cy="21.8329" rx="0.715" ry="0.712581" fill="#005687"/>
  <ellipse cx="7.09665" cy="21.8329" rx="0.715" ry="0.712581" fill="#005687"/>
  <ellipse cx="7.09665" cy="21.8329" rx="0.715" ry="0.712581" fill="#005687"/>
  <ellipse cx="7.09665" cy="21.8329" rx="0.715" ry="0.712581" fill="#005687"/>
  <circle cx="7.5" cy="7.5" r="7.5" fill="#005687" fill-opacity="0.1"/>
  <ellipse cx="7.49987" cy="7.50021" rx="3.21429" ry="3.21429" fill="#005687"/>
</svg>